# xmcd CD database file generated by freedbAccess_ocx
#
# Track frame offsets:
#       182
#       10915
#       51105
#       81162
#       107825
#       170657
#       198570
#       233962
#       261827
#
# Disc length: 4080 seconds
#
# Revision: 0
# Processed by: cddbd v1.5.1PL0 Copyright (c) Steve Scherf et al.
# Submitted via: CDnGo 2.00
#
DISCID=770fee09
DTITLE=Schmidt, Arno - Arno Schmidt Edition Vol. 6 Tina - Goethe [CD2)
DYEAR=1998
DGENRE=Speech
TTITLE0=Kurze offizielle Prüfung
TTITLE1=Heimweg - etwa 30 Kapitäne
TTITLE2=Dichter. O gehen sie doch!
TTITLE3=Draussen warten
TTITLE4=Meine Bibliothek mager
TTITLE5=Ich sah den Grand Old Man
TTITLE6=Er wich natürlich beherrscht aus
TTITLE7=Also Regierungen und Parlamente
TTITLE8=Die 'Goethe Straße' in unserer Stadt
EXTD=
EXTT0=
EXTT1=
EXTT2=
EXTT3=
EXTT4=
EXTT5=
EXTT6=
EXTT7=
EXTT8=
PLAYORDER=
